HIERARCHY
ROOT Hips
{
	OFFSET	0.00	0.00	0.00
	CHANNELS 6 Xposition Yposition Zposition Zrotation Xrotation Yrotation
	JOINT LeftUpLeg
	{
		OFFSET	 0.126116	-0.065224	 0.014019
		CHANNELS 3 Zrotation Xrotation Yrotation
		JOINT LeftLeg
		{
			OFFSET	 0.000000	 0.569914	 0.000000
			CHANNELS 3 Zrotation Xrotation Yrotation
			JOINT LeftFoot
			{
				OFFSET	 0.000000	 0.544423	 0.000000
				CHANNELS 3 Zrotation Xrotation Yrotation
				JOINT LeftToeBase
				{
					OFFSET	 0.000000	 0.207117	 0.000000
					CHANNELS 3 Zrotation Xrotation Yrotation
					End Site
					{
						OFFSET	 0.000000	 0.207117	 0.000000
					}
				}
			}
		}
	}
	JOINT RightUpLeg
	{
		OFFSET	-0.124023	-0.065224	 0.008373
		CHANNELS 3 Zrotation Xrotation Yrotation
		JOINT RightLeg
		{
			OFFSET	 0.000000	 0.570047	 0.000000
			CHANNELS 3 Zrotation Xrotation Yrotation
			JOINT RightFoot
			{
				OFFSET	 0.000000	 0.544354	 0.000000
				CHANNELS 3 Zrotation Xrotation Yrotation
				JOINT RightToeBase
				{
					OFFSET	 0.000000	 0.207540	 0.000000
					CHANNELS 3 Zrotation Xrotation Yrotation
					End Site
					{
						OFFSET	 0.000000	 0.207540	 0.000000
					}
				}
			}
		}
	}
	JOINT Spine
	{
		OFFSET	 0.000184	 0.117403	 0.007763
		CHANNELS 3 Zrotation Xrotation Yrotation
		JOINT Spine1
		{
			OFFSET	 0.000000	 0.137269	 0.000000
			CHANNELS 3 Zrotation Xrotation Yrotation
			JOINT Spine2
			{
				OFFSET	 0.000000	 0.156879	 0.000000
				CHANNELS 3 Zrotation Xrotation Yrotation
				JOINT LeftShoulder
				{
					OFFSET	 0.080501	 0.160143	 0.002496
					CHANNELS 3 Zrotation Xrotation Yrotation
					JOINT LeftArm
					{
						OFFSET	 0.000000	 0.164363	 0.000000
						CHANNELS 3 Zrotation Xrotation Yrotation
						JOINT LeftForeArm
						{
							OFFSET	 0.000000	 0.364576	 0.000000
							CHANNELS 3 Zrotation Xrotation Yrotation
							JOINT LeftHand
							{
								OFFSET	 0.000000	 0.360812	 0.000000
								CHANNELS 3 Zrotation Xrotation Yrotation
								JOINT LeftHandIndex1
								{
									OFFSET	 0.000000	 0.086006	 0.000000
									CHANNELS 3 Zrotation Xrotation Yrotation
									JOINT LeftHandIndex2
									{
										OFFSET	 0.000000	 0.047237	 0.000000
										CHANNELS 3 Zrotation Xrotation Yrotation
										JOINT LeftHandIndex3
										{
											OFFSET	-0.004284	 0.038165	 0.000551
											CHANNELS 3 Zrotation Xrotation Yrotation
											End Site
											{
												OFFSET	-0.004284	 0.038165	 0.000551
											}
										}
									}
								}
							}
						}
					}
				}
				JOINT Neck
				{
					OFFSET	 0.000000	 0.176489	 0.000000
					CHANNELS 3 Zrotation Xrotation Yrotation
					JOINT Head
					{
						OFFSET	 0.000000	 0.077941	 0.001747
						CHANNELS 3 Zrotation Xrotation Yrotation
						End Site
						{
							OFFSET	 0.000000	 0.077941	 0.001747
						}
					}
				}
				JOINT RightShoulder
				{
					OFFSET	-0.080363	 0.159706	-0.000306
					CHANNELS 3 Zrotation Xrotation Yrotation
					JOINT RightArm
					{
						OFFSET	 0.000000	 0.164196	 0.000000
						CHANNELS 3 Zrotation Xrotation Yrotation
						JOINT RightForeArm
						{
							OFFSET	 0.000000	 0.365611	 0.000000
							CHANNELS 3 Zrotation Xrotation Yrotation
							JOINT RightHand
							{
								OFFSET	 0.000000	 0.360648	 0.000000
								CHANNELS 3 Zrotation Xrotation Yrotation
								JOINT RightHandIndex1
								{
									OFFSET	 0.000000	 0.069977	 0.000000
									CHANNELS 3 Zrotation Xrotation Yrotation
									JOINT RightHandIndex2
									{
										OFFSET	 0.000000	 0.052305	 0.000000
										CHANNELS 3 Zrotation Xrotation Yrotation
										JOINT RightHandIndex3
										{
											OFFSET	 0.009002	 0.042196	 0.000782
											CHANNELS 3 Zrotation Xrotation Yrotation
											End Site
											{
												OFFSET	 0.009002	 0.042196	 0.000782
											}
										}
									}
								}
							}
						}
					}
				}
			}
		}
	}
}
MOTION
Frames:    11
Frame Time: 0.03333334
-0.047181	 1.234740	-1.246471	-2.653176	 1.329518	-174.272100	 170.738800	 8.080181	-1.091177	 4.296461	-29.475760	 6.064016	 7.983101	 78.946010	-0.274460	 1.512287	 31.240310	-2.811662	 176.571900	 28.306330	 3.637707	-5.778412	-53.246000	 6.323106	 8.955603	 70.007210	-6.488100	-1.668530	 33.137300	 2.886185	-1.364282	 8.717093	-7.820642	 2.792200	 2.966311	-3.401917	-2.714180	-3.131599	 6.990947	-121.358900	 7.423540	 94.035500	 18.360010	 46.042950	-2.562332	 16.664040	-0.850142	 0.040584	-0.225792	-25.435090	-12.062070	 4.624177	 18.856530	-1.654968	-5.863953	 21.470840	 2.373669	 5.331528	 4.340008	-0.169039	-0.168371	-5.009586	-0.144698	-2.134348	-2.171891	-1.212283	 118.423900	-0.013289	-90.826350	 1.063277	 53.966170	-6.452173	-5.118361	-0.201135	 0.049577	-11.464980	-3.098361	-30.741630	-2.438165	 25.992480	 1.336381	 15.855080	 44.981340	-11.843920	-8.529009	 23.990480	-1.227679
-0.047151	 1.236610	-1.246922	-2.650507	 1.324064	-174.267500	 170.623900	 8.066608	-0.623781	 4.299445	-29.483300	 6.071868	 7.674325	 78.573590	 0.020894	 1.512561	 31.243720	-2.811791	 176.807400	 28.330310	 3.101215	-5.779640	-53.246270	 6.325129	 9.160266	 69.720340	-6.607890	-1.668650	 33.138730	 2.886245	-1.365878	 8.635159	-7.807019	 2.800531	 3.197438	-3.413720	-2.716595	-3.461818	 6.975964	-121.358800	 7.426947	 94.037210	 16.889170	 46.164090	-1.483135	 18.547460	-0.942992	 0.070135	-0.869340	-25.586340	-12.005830	 4.624619	 18.857980	-1.655203	-5.863949	 21.472110	 2.373809	 5.331582	 4.341286	-0.169016	-0.168434	-5.009876	-0.144411	-2.134784	-2.213331	-1.219178	 118.423400	-0.015292	-90.825440	 4.467270	 53.820530	-9.198050	-8.818451	-0.345591	 0.031921	-9.949266	-3.073619	-30.680850	-2.436558	 25.980590	 1.335516	 15.852040	 44.969750	-11.839270	-8.529057	 23.978540	-1.226882
-0.047114	 1.238294	-1.247640	-2.651334	 1.311749	-174.256900	 170.515200	 8.047182	-0.193263	 4.305711	-29.495150	 6.091012	 7.446390	 78.243160	 0.236350	 1.513250	 31.252300	-2.812115	 177.006400	 28.394230	 2.631454	-5.783134	-53.248730	 6.329887	 9.426046	 69.530140	-6.773341	-1.668950	 33.142330	 2.886395	-1.367107	 8.554150	-7.781070	 2.798796	 3.410105	-3.415338	-2.709825	-3.768046	 6.932847	-121.358500	 7.435547	 94.041470	 15.638580	 46.244680	-0.549882	 20.168300	-1.022116	 0.097934	-1.344124	-25.774520	-11.887100	 4.625727	 18.861620	-1.655794	-5.863939	 21.475300	 2.374162	 5.331719	 4.344501	-0.168957	-0.168591	-5.010606	-0.143689	-2.133432	-2.252693	-1.232744	 118.422200	-0.020362	-90.823040	 7.347975	 53.625280	-11.507520	-11.916590	-0.465487	 0.009940	-8.694181	-3.090138	-30.577600	-2.432522	 25.950690	 1.333346	 15.844410	 44.940570	-11.827560	-8.529174	 23.948520	-1.224878
-0.046996	 1.241714	-1.250402	-2.664830	 1.259807	-174.209900	 170.275200	 7.972170	 0.720100	 4.331894	-29.536840	 6.176162	 7.144995	 77.593920	 0.511713	 1.516354	 31.290910	-2.813576	 177.360600	 28.700810	 1.723715	-5.799309	-53.259510	 6.351018	 10.289140	 69.386160	-7.335527	-1.670305	 33.158520	 2.887073	-1.368805	 8.366262	-7.687791	 2.764652	 3.856854	-3.389450	-2.667459	-4.421345	 6.748152	-121.357500	 7.474185	 94.060650	 13.260600	 46.320010	 1.277497	 23.384720	-1.176589	 0.159661	-2.046727	-26.353050	-11.423020	 4.630718	 18.877990	-1.658455	-5.863894	 21.489690	 2.375750	 5.332338	 4.358971	-0.168694	-0.169298	-5.013893	-0.140438	-2.124044	-2.340904	-1.284105	 118.416900	-0.043167	-90.812330	 12.070760	 53.180010	-15.236560	-16.777130	-0.650703	-0.037366	-6.837451	-3.279890	-30.221400	-2.414380	 25.816060	 1.323612	 15.810230	 44.809230	-11.775020	-8.529697	 23.813380	-1.215866
-0.046916	 1.243222	-1.252570	-2.677576	 1.218860	-174.172700	 170.157500	 7.911631	 1.150714	 4.352253	-29.566820	 6.243863	 7.105547	 77.325210	 0.539296	 1.518833	 31.321740	-2.814744	 177.485100	 28.965380	 1.349634	-5.812045	-53.264510	 6.368127	 10.890380	 69.460790	-7.738546	-1.671387	 33.171450	 2.887614	-1.369263	 8.267342	-7.629434	 2.734215	 4.066018	-3.363885	-2.634766	-4.730590	 6.616722	-121.356700	 7.505044	 94.075980	 12.265180	 46.302660	 2.072993	 24.855040	-1.245995	 0.190768	-2.263935	-26.735690	-11.106250	 4.634704	 18.891070	-1.660581	-5.863859	 21.501170	 2.377017	 5.332831	 4.370522	-0.168484	-0.169863	-5.016517	-0.137843	-2.115639	-2.385871	-1.318982	 118.412600	-0.061344	-90.803820	 14.022900	 52.951630	-16.744620	-18.687640	-0.722256	-0.060311	-6.126384	-3.448747	-29.997840	-2.399929	 25.708580	 1.315882	 15.783120	 44.704360	-11.733240	-8.530097	 23.705490	-1.208678
-0.046789	 1.244923	-1.256393	-2.699996	 1.149596	-174.110200	 170.010400	 7.798611	 1.788656	 4.322071	-29.621550	 6.228878	 7.171678	 77.048500	 0.459400	 1.523040	 31.373980	-2.816728	 177.584700	 29.448340	 0.955729	-5.832629	-53.262570	 6.398135	 11.863580	 69.687060	-8.402691	-1.673221	 33.193360	 2.888532	-1.369675	 8.134869	-7.550915	 2.684182	 4.320323	-3.322413	-2.584080	-5.108553	 6.417461	-121.355400	 7.557347	 94.101960	 11.175950	 46.220090	 2.977090	 26.662080	-1.330171	 0.231378	-2.461293	-27.326090	-10.638270	 4.641460	 18.913220	-1.664187	-5.863801	 21.520640	 2.379166	 5.333667	 4.390102	-0.168129	-0.170819	-5.020962	-0.133444	-2.100801	-2.445091	-1.370696	 118.405300	-0.092203	-90.789320	 16.323240	 52.651900	-18.487400	-20.838360	-0.801925	-0.088854	-5.329173	-3.737948	-29.690860	-2.375499	 25.526390	 1.302864	 15.737530	 44.526560	-11.662750	-8.530738	 23.522600	-1.196511
-0.046660	 1.246095	-1.260584	-2.723064	 1.078775	-174.046500	 169.895400	 7.665709	 2.239172	 4.330060	-29.666930	 6.294137	 7.330776	 76.888380	 0.290361	 1.527375	 31.427770	-2.818778	 177.610700	 29.984770	 0.709514	-5.851676	-53.242870	 6.431029	 12.845400	 69.956680	-9.083234	-1.675110	 33.215920	 2.889479	-1.369865	 8.022381	-7.487998	 2.636352	 4.518476	-3.283515	-2.537328	-5.402031	 6.234035	-121.354000	 7.611173	 94.128680	 10.456210	 46.095940	 3.606487	 28.094860	-1.396004	 0.265427	-2.584919	-27.889350	-10.218640	 4.648419	 18.936030	-1.667903	-5.863740	 21.540680	 2.381378	 5.334527	 4.410258	-0.167763	-0.171804	-5.025540	-0.128916	-2.085158	-2.495090	-1.417468	 118.397900	-0.123957	-90.774420	 18.099820	 52.399310	-19.804600	-22.408470	-0.859326	-0.111667	-4.750385	-4.034125	-29.437600	-2.350432	 25.338800	 1.289571	 15.691050	 44.343460	-11.590600	-8.531355	 23.334310	-1.184003
-0.046389	 1.247555	-1.270109	-2.770110	 0.932517	-173.915700	 169.720900	 7.335333	 2.955341	 4.342832	-29.739450	 6.427168	 7.813019	 76.771260	-0.204471	 1.536342	 31.538840	-2.823028	 177.531100	 31.195050	 0.364053	-5.755242	-53.135920	 6.664814	 14.852320	 70.477060	-10.493130	-1.679013	 33.262500	 2.891437	-1.370160	 7.827079	-7.395780	 2.548047	 4.834337	-3.215508	-2.453254	-5.860193	 5.900604	-121.351300	 7.722340	 94.183890	 9.647511	 45.762670	 4.389861	 30.409820	-1.500471	 0.323941	-2.779338	-28.960170	-9.482669	 4.662795	 18.983130	-1.675585	-5.863619	 21.582060	 2.385947	 5.336304	 4.451880	-0.167009	-0.173835	-5.034994	-0.119565	-2.052295	-2.581614	-1.501099	 118.382500	-0.189528	-90.743680	 20.948040	 51.957980	-21.863510	-24.729110	-0.942994	-0.148166	-3.918183	-4.636277	-29.042960	-2.298940	 24.951390	 1.262470	 15.596530	 43.965200	-11.442970	-8.532483	 22.945450	-1.158234
-0.046089	 1.248299	-1.281319	-2.818160	 0.778491	-173.779300	 169.593800	 6.906950	 3.542187	 4.349488	-29.777180	 6.563699	 8.464540	 76.826930	-0.861699	 1.545781	 31.655480	-2.827519	 177.326300	 32.571670	 0.263726	-5.700497	-52.873540	 6.844287	 16.921720	 70.874910	-11.956510	-1.683117	 33.311420	 2.893499	-1.370374	 7.650329	-7.335889	 2.467523	 5.101565	-3.159326	-2.377660	-6.231022	 5.593521	-121.348500	 7.839088	 94.241880	 9.394796	 45.331850	 4.751849	 32.337410	-1.585516	 0.375827	-2.983218	-29.985420	-8.840598	 4.677905	 19.032590	-1.683670	-5.863496	 21.625510	 2.390747	 5.338169	 4.495589	-0.166218	-0.175967	-5.044922	-0.109746	-2.017366	-2.660042	-1.576842	 118.366300	-0.258403	-90.711400	 23.377120	 51.545730	-23.572050	-26.498540	-1.005801	-0.178310	-3.334408	-5.254365	-28.751210	-2.245246	 24.544450	 1.234508	 15.499340	 43.567710	-11.289830	-8.533462	 22.537010	-1.131257
-0.045596	 1.248536	-1.300518	-2.889189	 0.542424	-173.573000	 169.473400	 6.098879	 4.265524	 4.342682	-29.738590	 6.764030	 9.670835	 77.106220	-2.065320	 1.560233	 31.833540	-2.834429	 176.847200	 34.762600	 0.358550	-5.541641	-52.093930	 7.189999	 19.883080	 71.107730	-14.024710	-1.689390	 33.386090	 2.896656	-1.370765	 7.409772	-7.292392	 2.363373	 5.452797	-3.096603	-2.279540	-6.687709	 5.178668	-121.344600	 8.017331	 94.330440	 9.783395	 44.551190	 4.703207	 34.663510	-1.685807	 0.442219	-3.316861	-31.397540	-8.037732	 4.700993	 19.108080	-1.696042	-5.863316	 21.691850	 2.398077	 5.341015	 4.562312	-0.165014	-0.179218	-5.060077	-0.094757	-1.963614	-2.767476	-1.677577	 118.341800	-0.363547	-90.662190	 26.555660	 50.950740	-25.749990	-28.512830	-1.075966	-0.214818	-2.790303	-6.170400	-28.461460	-2.164015	 23.923090	 1.192793	 15.354970	 42.960490	-11.059710	-8.534550	 21.913420	-1.090233
-0.044483	 1.247159	-1.344346	-3.023075	 0.070544	-173.164300	 169.428600	 3.999589	 5.387782	 4.253788	-29.231840	 7.128541	 12.679920	 77.952910	-5.034429	 1.589267	 32.189260	-2.848433	 175.440500	 38.820730	 1.190927	-4.915665	-48.732690	 8.168261	 24.391330	 70.260930	-16.869090	-1.701953	 33.535270	 2.903002	-1.370920	 6.985825	-7.316329	 2.205173	 6.060369	-3.030595	-2.125119	-7.403657	 4.468051	-121.337500	 8.373428	 94.507450	 12.430440	 42.633520	 3.186221	 37.575330	-1.807384	 0.531027	-3.821590	-33.811920	-6.865047	 4.747201	 19.258900	-1.720873	-5.862981	 21.824380	 2.412729	 5.346698	 4.695615	-0.162617	-0.185701	-5.090359	-0.064813	-1.855412	-2.960590	-1.846450	 118.293100	-0.573708	-90.563970	 31.835100	 49.800580	-29.222170	-31.085900	-1.163926	-0.265129	-2.518863	-7.892797	-28.227610	-2.004291	 22.681330	 1.112874	 15.080420	 41.745860	-10.612630	-8.535281	 20.667330	-1.008813
